<svg width="645" height="470" viewBox="0 0 645 470" fill="none" xmlns="http://www.w3.org/2000/svg">
<path d="M54.851 462.975H42.571L40.308 469.238H36.4309L46.6103 441.241H50.8504L60.9911 469.238H57.114L54.851 462.975ZM53.8007 459.986L48.711 445.767L43.6213 459.986H53.8007Z" fill="#3E4729"/>
<path d="M103.724 469.238H100.048L85.2657 446.818V469.238H81.5894V441.041H85.2657L100.048 463.423V441.041H103.724V469.238Z" fill="#3E4729"/>
<path d="M142.889 442.793C145.137 443.937 146.859 445.574 148.056 447.706C149.253 449.829 149.856 452.34 149.856 455.213C149.856 458.086 149.253 460.596 148.056 462.704C146.859 464.82 145.137 466.442 142.889 467.554C140.642 468.667 137.977 469.223 134.911 469.223H126.145V441.063H134.911C137.985 441.063 140.642 441.635 142.889 442.778V442.793ZM143.229 463.322C145.145 461.399 146.095 458.688 146.095 455.213C146.095 451.737 145.129 448.98 143.206 447.018C141.283 445.056 138.51 444.068 134.904 444.068H129.814V466.211H134.904C138.541 466.211 141.314 465.245 143.222 463.322H143.229Z" fill="#3E4729"/>
<path d="M185.684 469.238L178.981 457.731H174.54V469.238H170.863V441.079H179.954C182.078 441.079 183.877 441.442 185.345 442.176C186.812 442.902 187.909 443.89 188.635 445.126C189.361 446.362 189.731 447.783 189.731 449.366C189.731 451.305 189.175 453.019 188.055 454.495C186.943 455.977 185.26 456.966 183.028 457.445L190.094 469.238H185.692H185.684ZM174.532 454.773H179.946C181.939 454.773 183.429 454.278 184.433 453.305C185.429 452.317 185.924 451.004 185.924 449.366C185.924 447.729 185.429 446.408 184.449 445.489C183.468 444.578 181.962 444.114 179.946 444.114H174.532V454.78V454.773Z" fill="#3E4729"/>
<path d="M215.257 444.068V453.491H225.521V456.518H215.257V466.219H226.726V469.246H211.581V441.048H226.726V444.076H215.257V444.068ZM222.687 434.986L214.083 439.589V436.847L222.687 431.788V434.986Z" fill="#3E4729"/>
<path d="M252.399 468.528C250.931 467.872 249.78 466.952 248.946 465.786C248.112 464.612 247.68 463.261 247.656 461.724H251.572C251.711 463.044 252.252 464.157 253.21 465.053C254.167 465.956 255.565 466.404 257.396 466.404C259.226 466.404 260.524 465.972 261.535 465.091C262.547 464.218 263.049 463.091 263.049 461.724C263.049 460.643 262.756 459.77 262.161 459.098C261.566 458.426 260.825 457.916 259.937 457.561C259.048 457.213 257.851 456.835 256.345 456.426C254.492 455.947 253.001 455.46 251.881 454.974C250.761 454.487 249.804 453.73 249.016 452.687C248.22 451.653 247.826 450.262 247.826 448.509C247.826 446.972 248.213 445.613 249 444.423C249.78 443.242 250.877 442.33 252.29 441.682C253.704 441.041 255.326 440.716 257.156 440.716C259.798 440.716 261.96 441.373 263.636 442.693C265.32 444.006 266.27 445.767 266.486 447.945H262.447C262.308 446.872 261.744 445.922 260.748 445.095C259.751 444.277 258.431 443.867 256.785 443.867C255.249 443.867 253.997 444.261 253.032 445.057C252.059 445.852 251.58 446.964 251.58 448.386C251.58 449.405 251.866 450.239 252.445 450.888C253.024 451.537 253.742 452.023 254.592 452.355C255.442 452.695 256.631 453.081 258.168 453.514C260.022 454.024 261.52 454.526 262.647 455.02C263.783 455.522 264.748 456.287 265.559 457.321C266.362 458.364 266.772 459.77 266.772 461.554C266.772 462.921 266.409 464.218 265.675 465.431C264.949 466.644 263.875 467.624 262.447 468.374C261.018 469.13 259.334 469.509 257.396 469.509C255.457 469.509 253.874 469.184 252.406 468.52L252.399 468.528Z" fill="#3E4729"/>
<path d="M334.984 441.079L325.809 458.611V469.238H322.132V458.611L312.926 441.079H317.004L323.955 455.336L330.898 441.079H334.984Z" fill="#3E4729"/>
<path d="M404.1 469.238H400.424L385.634 446.818V469.238H381.958V441.041H385.634L400.424 463.423V441.041H404.1V469.238Z" fill="#3E4729"/>
<path d="M443.149 462.975H430.869L428.606 469.238H424.729L434.909 441.241H439.149L449.282 469.238H445.405L443.142 462.975H443.149ZM442.107 459.986L437.009 445.767L431.92 459.986H442.099H442.107Z" fill="#3E4729"/>
<path d="M487.226 441.079V444.068H479.549V469.238H475.873V444.068H468.157V441.079H487.226Z" fill="#3E4729"/>
<path d="M524.545 462.975H512.265L510.002 469.238H506.125L516.305 441.241H520.545L530.678 469.238H526.801L524.538 462.975H524.545ZM523.495 459.986L518.398 445.767L513.308 459.986H523.487H523.495Z" fill="#3E4729"/>
<path d="M554.968 466.249H564.823V469.238H551.292V441.079H554.968V466.249Z" fill="#3E4729"/>
<path d="M588.572 441.079V469.238H584.896V441.079H588.572Z" fill="#3E4729"/>
<path d="M627.637 462.975H615.356L613.094 469.238H609.216L619.396 441.241H623.636L633.769 469.238H629.892L627.629 462.975H627.637ZM626.586 459.986L621.489 445.767L616.399 459.986H626.579H626.586Z" fill="#3E4729"/>
<path d="M237.879 320.866C244.42 347.519 254.978 349.025 265.042 349.025V352.045H175.018V349.025C187.592 349.025 199.663 348.021 195.64 321.368C181.56 252.468 126.238 168.986 79.4653 141.824L34.2066 314.324C25.1549 347.519 44.2624 349.025 68.4055 349.025V352.045H0V349.025C6.53394 349.025 13.0756 348.523 19.1075 338.969C40.7328 270.069 -16.5974 178.038 24.1354 138.804C38.717 124.724 56.8283 124.724 76.4378 134.278L111.648 0H153.393L237.879 320.866ZM29.1633 313.822L74.9317 139.306C57.3303 130.254 41.2349 130.254 29.6653 140.819C-8.04771 175.018 34.6932 247.942 28.6613 313.822H29.1633ZM179.544 258.5L114.159 9.55376L80.9637 136.796C116.167 156.405 155.393 206.699 179.537 258.5H179.544Z" fill="#3E4729"/>
<path d="M399.713 349.025C411.275 349.025 418.82 339.471 418.82 320.866V31.1868C418.82 13.0833 410.271 3.01982 399.713 3.01982V0H448.493L619.99 322.874V31.1868C619.99 13.0833 614.962 3.01982 600.882 3.01982V0H644.133V3.01982C630.053 3.01982 625.025 13.0833 625.025 31.1868V320.866C625.025 338.969 635.583 349.025 644.133 349.025V352.045H595.352L423.848 29.171V320.866C423.848 339.471 431.394 349.025 442.956 349.025V352.045H399.705V349.025H399.713Z" fill="#3E4729"/>
<path d="M329.81 0H324.627V352.045H329.81V0Z" fill="#3E4729"/>
</svg>
