<svg width="1023" height="487" viewBox="0 0 1023 487" fill="none" xmlns="http://www.w3.org/2000/svg">
    <path d="M134.357 181.223C138.049 196.282 144.013 197.126 149.7 197.126V198.83H98.8508V197.126C105.951 197.126 112.766 196.558 110.494 181.507C102.543 142.593 71.2964 95.4429 44.8778 80.1L19.3113 177.531C14.1995 196.274 24.9911 197.126 38.6226 197.126V198.83H0V197.126C3.69187 197.126 7.38373 196.842 10.7916 191.446C23.0032 152.532 -9.37166 100.547 13.6315 78.3961C21.8672 70.4444 32.0983 70.4444 43.1739 75.8402L63.0607 0H86.6393L134.357 181.223ZM16.4714 177.247L42.3219 78.6801C32.3823 73.5683 23.2946 73.5683 16.7554 79.5321C-4.54384 98.8433 19.5953 140.037 16.1874 177.247H16.4714ZM101.407 146.001L64.4806 5.3958L45.7373 77.2601C65.6166 88.3357 87.7752 116.742 101.414 146.001H101.407Z" fill="white" />
    <path d="M155.372 197.126C161.904 197.126 167.3 191.446 167.3 181.223V77.26C167.3 67.0364 161.904 62.7765 155.372 62.7765V61.0726L167.3 59.9366V59.6527L190.027 56.8128V117.602C205.086 56.5288 270.695 23.8625 270.695 89.1951V181.23C270.695 191.454 276.09 197.134 282.622 197.134V198.838H236.033V197.134C242.565 197.134 247.96 191.454 247.96 181.23V89.1951C247.96 47.7251 194.271 73.8596 190.012 135.209V181.223C190.012 191.446 195.407 197.126 201.939 197.126V198.83H155.357V197.126H155.372Z" fill="white" />
    <path d="M406.188 0V178.383C406.188 188.607 411.583 192.866 418.115 192.866V194.57L406.188 195.706V195.99L383.461 198.83V178.099C377.213 190.31 358.746 201.11 341.707 201.11C303.929 201.11 278.646 168.159 278.646 127.825C278.646 87.4912 307.053 54.825 339.151 54.825C360.742 54.825 376.645 67.8885 383.461 88.0592V20.4547C383.461 10.2311 378.065 5.97126 371.533 5.97126V4.26732L383.461 3.13136V2.84737L406.188 0.00747341V0ZM341.707 198.27C369.261 198.27 381.473 177.538 383.461 170.715V109.642C383.461 86.6318 371.817 57.6574 339.151 57.6574C306.485 57.6574 302.793 99.9793 302.793 127.818C302.793 155.656 304.781 198.262 341.707 198.262V198.27Z" fill="white" />
    <path d="M423.795 197.126C430.327 197.126 435.723 191.447 435.723 181.223V77.2603C435.723 67.0367 430.327 62.7768 423.795 62.7768V61.0729L435.723 59.9369V59.6529L458.449 56.813V117.602C470.661 68.1801 516.398 37.5017 532.869 62.2088L519.238 104.531H516.398C516.398 53.6891 462.709 74.1364 458.449 135.209V181.223C458.449 191.447 463.845 197.126 470.377 197.126V198.83H423.795V197.126Z" fill="white" />
    <path d="M527.757 128.677C527.757 93.4551 549.916 53.1211 597.918 53.1211C645.919 53.1211 667.794 87.4913 667.794 114.194H552.756C552.188 119.022 551.904 124.133 551.904 128.677C551.904 164.467 563.547 199.406 600.474 199.406C640.24 199.406 646.487 155.664 668.646 155.664C688.817 155.664 702.732 198.27 741.078 198.27C760.681 198.27 782.264 189.75 782.264 167.307C782.264 124.417 675.746 134.641 675.746 90.6152C675.746 63.6287 708.412 54.541 736.251 54.541C759.545 54.541 777.721 61.0728 791.076 72.1559L791.644 105.674H787.668C787.668 86.6468 776.592 57.3884 736.258 57.3884C710.408 57.3884 698.196 66.7601 698.196 79.2631C698.196 118.745 802.727 108.238 802.727 154.251C802.727 189.757 770.344 201.125 741.086 201.125C701.32 201.125 681.717 171.014 671.777 171.014C651.891 171.014 639.395 202.544 600.481 202.544C549.071 202.544 527.765 167.038 527.765 128.692L527.757 128.677ZM643.08 111.346C642.228 91.7437 633.14 56.2375 597.918 56.2375C570.363 56.2375 557.3 84.9279 553.324 111.346H643.08Z" fill="white" />
    <path d="M624.523 21.5083L614.583 41.6716H605.496L609.188 21.5083H624.523Z" fill="white" />
    <path d="M370.353 442.022C376.884 442.022 381.144 436.627 381.144 426.119V262.504C381.144 252.272 376.316 246.593 370.353 246.593V244.889H397.907L494.77 427.255V262.504C494.77 252.272 491.93 246.593 483.978 246.593V244.889H508.409V246.593C500.457 246.593 497.617 252.272 497.617 262.504V426.119C497.617 436.343 503.581 442.022 508.409 442.022V443.726H480.854L383.992 261.368V426.119C383.992 436.627 388.251 442.022 394.783 442.022V443.726H370.353V442.022Z" fill="white" />
    <path d="M624.568 346.58V423.272C624.568 433.503 630.248 437.755 637.071 437.755V439.459L624.568 440.595V440.879L601.849 443.719V417.592C585.938 460.766 514.081 452.53 514.081 409.917C514.081 361.631 586.513 352.82 586.513 342.88C586.513 336.633 568.331 346.004 557.255 346.004C543.907 346.004 537.092 336.349 537.092 325.557C537.092 313.345 544.475 298.002 572.882 298.002C597.305 298.002 623.155 312.777 624.575 346.572L624.568 346.58ZM601.849 397.705V349.42C601.849 315.617 591.625 301.418 572.882 301.418C556.119 301.418 552.143 314.489 552.143 321.589C552.143 332.096 555.835 337.499 572.306 337.499C581.394 337.499 589.353 338.067 589.353 342.895C589.353 354.255 538.228 363.066 538.228 409.932C538.228 454.242 601.856 448.562 601.856 397.72L601.849 397.705Z" fill="white" />
    <path d="M636.787 419.296V322.149C636.787 311.925 631.391 307.665 624.852 307.665V305.962L636.787 296.022V295.738L657.518 278.123H659.506V305.11H678.818V307.949H659.506V415.604C659.506 451.11 669.73 452.246 677.121 452.246V455.086C661.502 455.086 638.775 445.998 636.787 419.296Z" fill="white" />
    <path d="M849.824 244.889V423.84C848.12 506.219 684.505 508.491 684.505 420.148C684.505 361.638 756.937 352.827 756.937 342.888C756.937 336.64 738.754 346.011 727.679 346.011C714.331 346.011 707.508 336.356 707.508 325.564C707.508 313.353 714.892 298.01 743.298 298.01C767.729 298.01 793.572 312.785 794.999 346.579V423.272C794.999 433.503 800.679 437.755 807.495 437.755V439.459L794.999 440.595V440.879L772.273 443.719V349.419C772.273 315.617 762.049 301.418 743.298 301.418C726.543 301.418 722.567 314.489 722.567 321.588C722.567 332.096 726.259 337.499 742.73 337.499C751.818 337.499 759.777 338.067 759.777 342.895C759.777 354.255 708.644 363.066 708.644 420.155C708.644 507.362 827.098 499.119 827.098 427.83V265.351C827.098 255.127 821.702 250.867 815.17 250.867V249.163L827.098 248.028V247.744L849.824 244.904V244.889Z" fill="white" />
    <path d="M892.998 301.702V426.119C892.998 436.343 898.401 442.023 904.933 442.023V443.727H858.351V442.023C864.883 442.023 870.279 436.343 870.279 426.119V322.157C870.279 311.933 864.883 307.673 858.351 307.673V305.969L870.279 304.833V304.549L892.998 301.709V301.702ZM865.444 264.492C865.444 257.108 871.975 250.576 879.927 250.576C887.311 250.576 893.843 257.115 893.843 264.492C893.843 272.443 887.311 278.975 879.927 278.975C871.975 278.975 865.444 272.443 865.444 264.492Z" fill="white" />
    <path d="M1009.74 346.58V423.272C1009.74 433.503 1015.42 437.755 1022.24 437.755V439.459L1009.74 440.595V440.879L987.014 443.719V417.592C971.11 460.766 899.246 452.53 899.246 409.917C899.246 361.631 971.678 352.82 971.678 342.88C971.678 336.633 953.495 346.004 942.42 346.004C929.072 346.004 922.249 336.349 922.249 325.557C922.249 313.345 929.633 298.002 958.039 298.002C982.47 298.002 1008.31 312.777 1009.74 346.572V346.58ZM987.014 397.705V349.42C987.014 315.617 976.79 301.418 958.039 301.418C941.284 301.418 937.3 314.489 937.3 321.589C937.3 332.096 940.992 337.499 957.471 337.499C966.559 337.499 974.518 338.067 974.518 342.895C974.518 354.255 923.385 363.066 923.385 409.932C923.385 454.242 987.014 448.562 987.014 397.72V397.705Z" fill="white" />
    <path d="M131.211 339.51C139.73 333.83 147.974 327.866 156.493 321.895C162.457 317.919 168.705 313.659 175.521 310.535C178.361 309.115 181.2 307.98 184.608 307.696C189.72 307.696 193.128 310.535 193.98 315.647C194.264 317.067 194.264 318.203 194.264 319.623C194.264 322.747 193.696 326.155 193.128 329.279C192.844 331.551 191.992 334.107 191.14 336.379C191.14 336.946 190.572 337.514 190.572 338.366C190.572 338.366 190.856 338.65 190.856 338.934C191.992 338.934 192.844 338.082 193.412 337.798C212.155 325.587 230.622 313.375 249.089 301.44C260.732 294.057 272.1 286.673 284.027 279.857C285.163 279.289 286.015 278.721 287.151 278.437C287.719 278.153 288.287 277.869 288.855 277.869C289.139 277.869 289.707 278.153 289.991 278.153C290.559 278.437 290.843 279.005 290.843 279.289C290.843 279.573 290.559 280.141 290.275 280.425L289.423 281.277C288.287 281.838 287.435 282.413 286.583 282.973C276.643 286.949 268.116 293.205 259.029 298.884C236.018 313.091 213.583 327.859 190.856 342.626C189.436 343.478 188.3 344.33 187.732 345.75C178.361 368.193 165.574 388.924 151.942 408.811C143.138 421.306 134.043 433.525 123.82 445.169C116.152 454.257 107.909 463.068 98.253 470.452C94.2772 473.575 90.3013 476.415 85.1895 478.127C83.7696 478.687 82.0656 478.979 80.6457 478.979C78.6577 478.979 76.9538 478.411 74.9659 477.843C72.41 476.991 70.422 475.571 69.2861 473.015C67.8661 470.175 67.0142 467.051 67.0142 463.636V460.228C67.0142 452.56 68.4341 444.892 70.138 437.509C73.8299 421.314 79.5097 405.978 86.3255 390.919C90.0173 382.968 93.9932 375.584 98.537 368.2C99.673 366.212 101.093 364.508 102.797 362.804C104.217 361.669 105.353 361.101 106.773 361.101C108.193 361.101 109.613 361.953 110.749 363.372C111.317 364.224 111.885 365.076 112.453 365.644C115.292 370.472 119.552 371.892 124.096 371.892H126.652C133.184 371.04 138.864 368.768 144.835 365.928C155.91 360.817 166.709 354.561 177.217 348.03C178.637 347.178 179.489 346.326 180.341 344.906C183.749 337.238 186.873 329.57 188.293 321.327C188.577 319.623 188.577 317.919 188.577 316.215V314.227C188.293 311.955 187.725 310.819 186.021 310.819C185.737 310.819 185.169 311.103 184.601 311.103C181.761 311.671 179.205 312.807 176.649 314.227C168.697 318.771 161.314 324.167 154.206 329.847L136.308 343.486C134.32 344.906 132.048 346.61 129.776 347.746C128.072 348.598 126.368 348.882 124.38 348.882C123.244 348.882 122.108 348.882 120.688 348.314C116.996 346.894 115.292 344.338 115.292 340.638V339.786C116.144 333.539 118.7 327.575 121.256 321.888C124.38 315.072 127.788 308.824 132.048 302.576C133.468 300.304 136.024 299.168 138.58 299.168C140.567 299.168 142.839 300.02 144.543 302.008C145.395 302.576 145.679 303.144 145.679 303.712C145.679 304.28 145.395 304.848 144.827 305.7C142.839 309.108 140.567 312.232 138.58 315.356C134.32 322.74 130.344 330.407 126.936 338.366C126.652 339.502 126.084 340.638 125.8 341.774C126.084 342.058 126.084 342.342 126.368 342.342C128.072 341.49 129.492 340.638 131.196 339.502L131.211 339.51ZM173.533 353.149C165.581 357.977 157.629 362.52 149.386 366.496C142.286 369.904 134.903 373.028 126.943 373.88H124.388C118.708 373.88 113.596 372.184 109.897 366.78C109.613 365.928 108.761 365.36 108.193 364.508C107.625 363.94 107.341 363.656 107.057 363.656C106.489 363.656 106.205 363.94 105.637 364.217C103.649 366.205 102.513 368.193 101.093 370.465C97.6851 376.429 94.5612 382.392 91.7213 388.648C84.0535 405.41 77.8058 422.45 74.3979 440.633C73.2619 447.164 72.41 453.412 72.41 459.66V462.5C72.694 465.624 72.9779 468.748 74.3979 471.311C75.5339 473.583 76.6698 474.719 78.3738 474.719C78.9417 474.719 79.7937 474.435 80.9297 474.151C83.7696 472.731 86.3255 471.027 88.8814 469.323C99.105 461.371 107.625 451.708 115.868 442.053C125.524 430.693 134.335 419.042 142.57 406.83C152.794 392.631 162.45 377.856 170.977 362.804C172.965 359.397 174.953 355.989 176.373 352.013C174.953 352.013 174.385 352.581 173.533 353.149Z" fill="white" />
</svg>